<svg width="341" height="340" viewBox="0 0 341 340" fill="none" xmlns="http://www.w3.org/2000/svg">
<path d="M258.67 0C213.57 0 177.02 36.56 177.02 81.65C177.02 98.83 168.61 128.04 155.18 144.12C138.61 163.95 98.87 175.79 81.65 175.79C36.55 175.79 0 212.35 0 257.44C0 302.53 36.56 339.09 81.65 339.09C126.74 339.09 163.3 302.53 163.3 257.44C163.3 240.25 173.4 202.17 193.29 185.91C209.61 172.57 241.44 163.3 258.67 163.3C303.77 163.3 340.32 126.74 340.32 81.65C340.32 36.56 303.76 0 258.67 0Z" fill="#FEC820"/>
</svg>
